<svg xmlns="http://www.w3.org/2000/svg" viewBox="0 0 1300 768" width="1300" height="768" role="img" font-family="'Noto Sans KR','Apple SD Gothic Neo','Malgun Gothic',sans-serif">
<defs>
<marker id="open" viewBox="0 0 10 10" refX="9" refY="5" markerWidth="9" markerHeight="9" orient="auto-start-reverse"><path d="M0 0 L10 5 L0 10" fill="none" stroke="#334155" stroke-width="1.6"/></marker>
<marker id="solid" viewBox="0 0 10 10" refX="9" refY="5" markerWidth="7" markerHeight="7" orient="auto-start-reverse"><path d="M0 0 L10 5 L0 10 z" fill="#334155"/></marker>
<marker id="tri" viewBox="0 0 12 12" refX="11" refY="6" markerWidth="12" markerHeight="12" orient="auto-start-reverse"><path d="M0 0 L12 6 L0 12 z" fill="#ffffff" stroke="#334155" stroke-width="1.4"/></marker>
<marker id="dia" viewBox="0 0 14 10" refX="13" refY="5" markerWidth="13" markerHeight="10" orient="auto-start-reverse"><path d="M0 5 L6.5 0 L13 5 L6.5 10 z" fill="#334155"/></marker>
</defs>
<rect x="0" y="0" width="1300" height="768" rx="14" fill="#ffffff" stroke="#e2e8f0"/>
<text x="28" y="38" font-size="19" font-weight="700" fill="#0f172a">시퀀스 — s3_stage 의 2단계 적재</text>
<text x="28" y="60" font-size="13" fill="#64748b">executor 는 CSV 를 올리기만 하고, 외부테이블 생성과 target INSERT 는 coordinator 가 중앙에서 한다</text>
<line x1="110.0" y1="130" x2="110.0" y2="742" stroke="#cbd5e1" stroke-width="1.2" stroke-dasharray="4 5"/>
<line x1="330.0" y1="130" x2="330.0" y2="742" stroke="#cbd5e1" stroke-width="1.2" stroke-dasharray="4 5"/>
<line x1="547.5" y1="130" x2="547.5" y2="742" stroke="#cbd5e1" stroke-width="1.2" stroke-dasharray="4 5"/>
<line x1="765.0" y1="130" x2="765.0" y2="742" stroke="#cbd5e1" stroke-width="1.2" stroke-dasharray="4 5"/>
<line x1="975.0" y1="130" x2="975.0" y2="742" stroke="#cbd5e1" stroke-width="1.2" stroke-dasharray="4 5"/>
<line x1="1180.0" y1="130" x2="1180.0" y2="742" stroke="#cbd5e1" stroke-width="1.2" stroke-dasharray="4 5"/>
<rect x="30" y="90" width="160" height="40" rx="8" fill="#eff6ff" stroke="#2563eb" stroke-width="1.7"/>
<text x="110.0" y="115" font-size="13" fill="#1d4ed8" text-anchor="middle" font-weight="700" font-family="'JetBrains Mono','D2Coding','Consolas',monospace">dispatcher</text>
<rect x="250" y="90" width="160" height="40" rx="8" fill="#ecfdf5" stroke="#059669" stroke-width="1.7"/>
<text x="330.0" y="115" font-size="13" fill="#047857" text-anchor="middle" font-weight="700" font-family="'JetBrains Mono','D2Coding','Consolas',monospace">executor</text>
<rect x="460" y="90" width="175" height="40" rx="8" fill="#fefce8" stroke="#ca8a04" stroke-width="1.7"/>
<text x="547.5" y="115" font-size="13" fill="#a16207" text-anchor="middle" font-weight="700" font-family="'JetBrains Mono','D2Coding','Consolas',monospace">Impala 등 소스</text>
<rect x="700" y="90" width="130" height="40" rx="8" fill="#f8fafc" stroke="#64748b" stroke-width="1.7"/>
<text x="765.0" y="115" font-size="13" fill="#334155" text-anchor="middle" font-weight="700" font-family="'JetBrains Mono','D2Coding','Consolas',monospace">S3</text>
<rect x="900" y="90" width="150" height="40" rx="8" fill="#f5f3ff" stroke="#7c3aed" stroke-width="1.7"/>
<text x="975.0" y="115" font-size="13" fill="#6d28d9" text-anchor="middle" font-weight="700" font-family="'JetBrains Mono','D2Coding','Consolas',monospace">Greenplum</text>
<rect x="1100" y="90" width="160" height="40" rx="8" fill="#f5f3ff" stroke="#7c3aed" stroke-width="1.7"/>
<text x="1180.0" y="115" font-size="13" fill="#6d28d9" text-anchor="middle" font-weight="700" font-family="'JetBrains Mono','D2Coding','Consolas',monospace">GP 세그먼트</text>
<line x1="110.0" y1="192" x2="330.0" y2="192" stroke="#0f172a" stroke-width="1.8" marker-end="url(#solid)"/>
<text x="220.0" y="185" font-size="12" fill="#334155" text-anchor="middle" font-weight="400">POST /tasks  (exec_mode=s3_stage)</text>
<line x1="330.0" y1="220" x2="547.5" y2="220" stroke="#0f172a" stroke-width="1.8" marker-end="url(#solid)"/>
<text x="438.75" y="213" font-size="12" fill="#334155" text-anchor="middle" font-weight="400">SELECT … WHERE dt IN (…)</text>
<line x1="547.5" y1="248" x2="330.0" y2="248" stroke="#64748b" stroke-width="1.4" stroke-dasharray="6 4" marker-end="url(#open)"/>
<text x="438.75" y="241" font-size="12" fill="#64748b" text-anchor="middle" font-weight="400">행 스트림 → 로컬 CSV</text>
<line x1="330.0" y1="276" x2="765.0" y2="276" stroke="#0f172a" stroke-width="1.8" marker-end="url(#solid)"/>
<text x="547.5" y="269" font-size="12" fill="#334155" text-anchor="middle" font-weight="400">PutObject  &lt;prefix&gt;/&lt;job_id&gt;/&lt;task_id&gt;.csv</text>
<path d="M330.0,304 h46 v22 h-46" fill="none" stroke="#0f172a" stroke-width="1.8" marker-end="url(#solid)"/>
<text x="386.0" y="314" font-size="12" fill="#334155" text-anchor="start" font-weight="400">업로드가 끝나면 로컬 CSV 를 지운다</text>
<line x1="330.0" y1="350" x2="110.0" y2="350" stroke="#64748b" stroke-width="1.4" stroke-dasharray="6 4" marker-end="url(#open)"/>
<text x="220.0" y="343" font-size="12" fill="#64748b" text-anchor="middle" font-weight="400">task DONE</text>
<rect x="20" y="148" width="720" height="216" rx="6" fill="none" stroke="#7c3aed" stroke-width="1.2" stroke-dasharray="6 4"/>
<rect x="20" y="148" width="190.50000000000003" height="18" rx="4" fill="#7c3aed"/>
<text x="29" y="161" font-size="11.5" fill="#ffffff" text-anchor="start" font-weight="700">Phase 1 — executor 마다 병렬</text>
<rect x="20" y="388" width="700" height="24" rx="6" fill="#fffbeb" stroke="#d97706" stroke-width="1.2"/>
<text x="30" y="404" font-size="11.5" fill="#92400e" text-anchor="start" font-weight="400">배리어 — 모든 task 의 업로드가 끝나야 Phase 2 로 넘어간다.</text>
<line x1="110.0" y1="470" x2="975.0" y2="470" stroke="#0f172a" stroke-width="1.8" marker-end="url(#solid)"/>
<text x="542.5" y="463" font-size="12" fill="#334155" text-anchor="middle" font-weight="400">CREATE EXTERNAL TABLE s3ext_&lt;job_id&gt;  (PXF, job prefix)</text>
<line x1="110.0" y1="498" x2="975.0" y2="498" stroke="#0f172a" stroke-width="1.8" marker-end="url(#solid)"/>
<text x="542.5" y="491" font-size="12" fill="#334155" text-anchor="middle" font-weight="400">DELETE FROM target WHERE 파티션 …   (write_mode · pre_delete)</text>
<line x1="110.0" y1="526" x2="975.0" y2="526" stroke="#0f172a" stroke-width="1.8" marker-end="url(#solid)"/>
<text x="542.5" y="519" font-size="12" fill="#334155" text-anchor="middle" font-weight="400">INSERT INTO target SELECT … FROM s3ext_&lt;job_id&gt;</text>
<line x1="975.0" y1="554" x2="1180.0" y2="554" stroke="#0f172a" stroke-width="1.8" marker-end="url(#solid)"/>
<text x="1077.5" y="547" font-size="12" fill="#334155" text-anchor="middle" font-weight="400">프리픽스 아래 객체를 나눠 읽는다</text>
<line x1="1180.0" y1="582" x2="765.0" y2="582" stroke="#0f172a" stroke-width="1.8" marker-end="url(#solid)"/>
<text x="972.5" y="575" font-size="12" fill="#334155" text-anchor="middle" font-weight="400">GetObject (PXF SERVER 자격증명)</text>
<line x1="975.0" y1="610" x2="110.0" y2="610" stroke="#64748b" stroke-width="1.4" stroke-dasharray="6 4" marker-end="url(#open)"/>
<text x="542.5" y="603" font-size="12" fill="#64748b" text-anchor="middle" font-weight="400">적재 행 수</text>
<rect x="20" y="430" width="1180" height="194" rx="6" fill="none" stroke="#7c3aed" stroke-width="1.2" stroke-dasharray="6 4"/>
<rect x="20" y="430" width="261.22500000000014" height="18" rx="4" fill="#7c3aed"/>
<text x="29" y="443" font-size="11.5" fill="#ffffff" text-anchor="start" font-weight="700">Phase 2 — coordinator 가 GP master 에서</text>
<line x1="110.0" y1="672" x2="975.0" y2="672" stroke="#0f172a" stroke-width="1.8" marker-end="url(#solid)"/>
<text x="542.5" y="665" font-size="12" fill="#334155" text-anchor="middle" font-weight="400">DROP EXTERNAL TABLE s3ext_&lt;job_id&gt;</text>
<line x1="110.0" y1="700" x2="765.0" y2="700" stroke="#0f172a" stroke-width="1.8" marker-end="url(#solid)"/>
<text x="437.5" y="693" font-size="12" fill="#334155" text-anchor="middle" font-weight="400">delete_prefix(&lt;prefix&gt;/&lt;job_id&gt;/)   s3.delete_on_cleanup=true 일 때</text>
<rect x="20" y="632" width="900" height="82" rx="6" fill="none" stroke="#7c3aed" stroke-width="1.2" stroke-dasharray="6 4"/>
<rect x="20" y="632" width="104.24999999999999" height="18" rx="4" fill="#7c3aed"/>
<text x="29" y="645" font-size="11.5" fill="#ffffff" text-anchor="start" font-weight="700">Phase 3 — 정리</text>
</svg>
